# xmcd
#
# Track frame offsets: 
#        150
#        17842
#        36403
#        55722
#        68048
#        85708
#        103139
#        121192
#        143699
#        163084
#        184943
#
# Disc length: 2516 seconds
#
# Revision: 0
# Processed by: cddbd v1.5.2PL0 Copyright (c) Steve Scherf et al.
# Submitted via: ExactAudioCopy v0.99pb3
#
DISCID=9009d20b
DTITLE=Quiet Time - Quiet Time
DYEAR=1900
DGENRE=Instrumental
TTITLE0=Tis So Sweet to Trust in Jesus
TTITLE1=He Is Lord - Great Is the Lord
TTITLE2=What a Friend We Have In Jesus
TTITLE3=Amazing Grace
TTITLE4=O Sacred Head Now Wounded
TTITLE5=Fairest Lord Jesus
TTITLE6=Take My Life and Let It Be
TTITLE7=Create In Me a Clean Heart
TTITLE8=Emmanuel
TTITLE9=Let Our Voices Rise Like Incense
TTITLE10=Doxology
EXTD=
EXTT0=
EXTT1=
EXTT2=
EXTT3=
EXTT4=
EXTT5=
EXTT6=
EXTT7=
EXTT8=
EXTT9=
EXTT10=
PLAYORDER=
